<svg xmlns="http://www.w3.org/2000/svg" viewBox="0 0 511.47 511.47"><defs><style>.cls-1{fill:#ffe97b}.cls-2{fill:#f2d94c}.cls-3{fill:#1e2d37}</style></defs><g id="Слой_2" data-name="Слой 2"><g id="Capa_1" data-name="Capa 1"><path class="cls-1" d="M409.18 309.2l14.63-23.5a28 28 0 1 0-48.43-28l-51.71 73.92-8-16H99.9v71.98a119.89 119.89 0 0 0 225.92 55.94l74-119.16z"/><path class="cls-2" d="M4 115.89h503.48v215.78H4z"/><path class="cls-1" d="M475.51 131.86H36a15.92 15.92 0 0 1-16 16v151.83a15.92 15.92 0 0 1 16 16h439.51a15.92 15.92 0 0 1 16-16V147.85a15.93 15.93 0 0 1-16-15.99zM304.89 276.19c-12.39 14.47-29.81 23.5-49.15 23.5s-36.76-9-49.15-23.5a36.34 36.34 0 0 1-3.11-3.83 81.72 81.72 0 0 1-15.66-48.59c0-42 30.44-75.92 67.93-75.92s67.93 34 67.93 75.92c-.02 20.3-7.12 38.84-18.79 52.42z"/><path class="cls-1" d="M279.71 252.3v9.7c0 4 16.38 10.79 25.18 14.14-12.39 14.47-29.81 23.5-49.15 23.5s-36.76-9-49.15-23.5c8.87-3.36 25.18-10.15 25.18-14.14v-9.7h.08c7.35 9.35 16.79 15.42 23.9 15.42s16.55-6.07 23.9-15.42h.08z"/><path class="cls-2" d="M291.7 219.77l-12.14-23.09s-9.36 5.59-24 5.59-23.66-5.59-23.66-5.59l-12.14 23.09c-5.76-61.77 59.95-47.95 59.95-47.95-11 4.47-2 8.15-2 8.15s19.66 3.03 13.99 39.8z"/><path class="cls-1" d="M255.58 202.27c14.62 0 24-5.59 24-5.59l12.14 23.09v.8c0 11.83-5.2 23.18-12.07 31.73-7.35 9.35-16.79 15.42-23.9 15.42s-16.54-6.07-23.9-15.42c-6.87-8.55-12.07-19.9-12.07-31.73v-.8l12.14-23.09s9.08 5.59 23.66 5.59z"/><path class="cls-2" d="M255.74 147.85c37.48 0 67.93 34 67.93 75.92 0 20.3-7.11 38.84-18.78 52.42-8.8-3.36-25.18-10.15-25.18-14.14v-9.75h-.08c6.87-8.55 12.07-19.9 12.07-31.73v-.8c5.67-36.76-14-39.8-14-39.8s-9-3.68 2-8.15c0 0-65.69-13.83-59.94 47.95v.8c0 11.83 5.2 23.18 12.07 31.73h-.08v9.7c0 4-16.3 10.79-25.18 14.14a36.34 36.34 0 0 1-3.11-3.83 81.72 81.72 0 0 1-15.66-48.59c.01-41.91 30.45-75.87 67.94-75.87z"/><path class="cls-1" d="M123.87 75.92a24 24 0 0 0-24 24v16h47.95v-16a24 24 0 0 0-23.95-24zM187.81 28a24 24 0 0 0-24 24v63.93h47.95V51.95A24 24 0 0 0 187.81 28zM251.74 4a24 24 0 0 0-24 24v87.91h48V28a24 24 0 0 0-24-24zM315.67 28a24 24 0 0 0-24 24v63.93h48V51.95a24 24 0 0 0-24-23.95zM413.57 247.5a27.94 27.94 0 0 0-38.2 10.23l-46.83 67-1.21-.85v7.8h68l4.52-7.27 9.35-15.18 14.63-23.5a28 28 0 0 0-10.26-38.23z"/><path class="cls-3" d="M68.17 183.81a4 4 0 0 1-4-4 4 4 0 0 1 3.95-4h.09a4 4 0 0 1 0 8zM84.15 183.81a4 4 0 0 1-4-4 4 4 0 0 1 3.95-4h.09a4 4 0 0 1 0 8zM100.14 183.81a4 4 0 0 1-4-4 4 4 0 0 1 3.95-4h.09a4 4 0 0 1 0 8zM116.12 183.81a4 4 0 0 1-4-4 4 4 0 0 1 3.95-4h.09a4 4 0 1 1 0 8zM132.1 183.81a4 4 0 0 1-4-4 4 4 0 0 1 3.95-4h.09a4 4 0 0 1 0 8zM148.09 183.81a4 4 0 0 1-4-4 4 4 0 0 1 3.95-4h.09a4 4 0 0 1 0 8zM363.87 183.81a4 4 0 0 1-4-4 4 4 0 0 1 3.95-4h.09a4 4 0 0 1 0 8zM379.85 183.81a4 4 0 0 1-4-4 4 4 0 0 1 3.95-4h.09a4 4 0 0 1 0 8zM395.83 183.81a4 4 0 0 1-4-4 4 4 0 0 1 3.95-4h.09a4 4 0 1 1 0 8zM411.82 183.81a4 4 0 0 1-4-4 4 4 0 0 1 3.95-4h.09a4 4 0 0 1 0 8zM427.8 183.81a4 4 0 0 1-4-4 4 4 0 0 1 3.95-4h.09a4 4 0 1 1 0 8zM443.78 183.81a4 4 0 0 1-4-4 4 4 0 0 1 3.95-4h.09a4 4 0 1 1 0 8z"/><path class="cls-3" d="M475.51 319.67a4 4 0 0 1-4-4 20 20 0 0 1 16-19.58V151.45a20.06 20.06 0 0 1-15.58-15.59H39.56A20.06 20.06 0 0 1 24 151.45v144.64a20 20 0 0 1 16 19.58 4 4 0 1 1-8 0 12 12 0 0 0-12-12 4 4 0 0 1-4-4V147.85a4 4 0 0 1 4-4 12 12 0 0 0 12-12 4 4 0 0 1 4-4h439.51a4 4 0 0 1 4 4 12 12 0 0 0 12 12 4 4 0 0 1 4 4v151.84a4 4 0 0 1-4 4 12 12 0 0 0-12 12 4 4 0 0 1-4 3.98z"/><path class="cls-3" d="M507.47 335.65a4 4 0 0 1-4-4V119.88H8v211.78a4 4 0 1 1-8 0V115.88a4 4 0 0 1 4-4h503.47a4 4 0 0 1 4 4v215.78a4 4 0 0 1-4 3.99z"/><path class="cls-3" d="M255.74 271.72c-17.08 0-40-25.3-40-51.17a4 4 0 0 1 8 0c0 23.19 21.44 43.18 32 43.18s32-20 32-43.18a4 4 0 1 1 8 0c-.05 25.87-22.93 51.17-40 51.17z"/><path class="cls-3" d="M304.87 280.22a4 4 0 0 1-1.43-.27c-27.73-10.64-27.73-15.17-27.73-17.88a4 4 0 0 1 7.91-.8c1.23 1.41 7.23 5.28 22.67 11.21a4 4 0 0 1-1.43 7.73z"/><path class="cls-3" d="M279.71 266.07a4 4 0 0 1-4-4v-9.79a4 4 0 1 1 8 0v9.79a4 4 0 0 1-4 4zM206.62 280.21a4 4 0 0 1-1.43-7.73c15.45-5.93 21.43-9.8 22.66-11.21a4 4 0 0 1 7.91.8c0 2.7 0 7.23-27.7 17.87a4.06 4.06 0 0 1-1.44.27z"/><path class="cls-3" d="M231.76 266.07a4 4 0 0 1-4-4v-9.79a4 4 0 0 1 8 0v9.79a4 4 0 0 1-4 4z"/><path class="cls-3" d="M255.74 303.69c-21.5 0-41.71-10.56-55.43-29a85.65 85.65 0 0 1-16.49-50.94c0-44.06 32.26-79.92 71.93-79.92s71.93 35.85 71.93 79.92-32.28 79.94-71.94 79.94zm0-151.84c-35.25 0-63.93 32.26-63.93 71.93a77.58 77.58 0 0 0 14.91 46.16c12.21 16.37 30.07 25.76 49 25.76 35.25 0 63.93-32.26 63.93-71.93s-28.65-71.93-63.91-71.93z"/><path class="cls-3" d="M219.77 223.77a3.68 3.68 0 0 1-.77-.08 4 4 0 0 1-3.21-3.54c-1.59-17 1.86-30.25 10.24-39.45 18.68-20.51 53.85-12.9 54.51-12.78a4 4 0 0 1 .69 7.61 17.15 17.15 0 0 0-1.65.76c4.82 1.38 21.56 8.78 16.06 44.11a4 4 0 0 1-7.49 1.23l-10.31-19.71a57.75 57.75 0 0 1-22.23 4.33 56.48 56.48 0 0 1-22-4.31l-10.3 19.69a4 4 0 0 1-3.54 2.14zm59.81-31.12a4 4 0 0 1 3.54 2.14l5.59 10.68c-.61-19.23-11.14-21.49-11.67-21.6a5.2 5.2 0 0 1-.84-.24c-1-.41-5.92-2.65-5.92-7.24a6.12 6.12 0 0 1 .24-1.71c-10.26-.69-28.13-.1-38.59 11.4a32.63 32.63 0 0 0-7.72 16.58l4.12-7.87a4 4 0 0 1 5.63-1.54c.07 0 8.46 5 21.63 5s21.85-5 21.93-5a4 4 0 0 1 2.07-.6zM79.92 247.75a24 24 0 1 1 24-24 24 24 0 0 1-24 24zm0-40a16 16 0 1 0 16 16 16 16 0 0 0-16-15.96zM135.86 247.75a24 24 0 1 1 24-24 24 24 0 0 1-24 24zm0-40a16 16 0 1 0 16 16 16 16 0 0 0-16-15.96z"/><path class="cls-3" d="M135.86 247.75a4 4 0 0 1-4-4v-40a4 4 0 0 1 8 0v40a4 4 0 0 1-4 4zM99.9 227.77h-40a4 4 0 0 1 0-8h40a4 4 0 0 1 0 8zM155.84 271.72h-95.9a4 4 0 1 1 0-8h95.9a4 4 0 1 1 0 8zM363.62 247.75a4 4 0 0 1-4-4v-40a4 4 0 0 1 8 0v40a4 4 0 0 1-4 4zM411.57 235.76a4 4 0 0 1-4-4v-16a8 8 0 1 0-16 0v16a4 4 0 1 1-8 0v-16a16 16 0 0 1 32 0v16a4 4 0 0 1-4 4zM439.55 247.75a16 16 0 0 1-16-16v-16a16 16 0 1 1 32 0v16a16 16 0 0 1-16 16zm0-40a8 8 0 0 0-8 8v16a8 8 0 0 0 16 0v-16a8 8 0 0 0-8-7.96z"/><path class="cls-3" d="M355.63 215.78a4 4 0 0 1-2.83-6.82l8-8a4 4 0 0 1 5.65 5.65l-8 8a4 4 0 0 1-2.82 1.17zM371.62 247.75h-16a4 4 0 1 1 0-8h16a4 4 0 0 1 0 8zM147.85 103.89a4 4 0 0 1-4-4 20 20 0 0 0-40 0 4 4 0 0 1-8 0 28 28 0 1 1 55.94 0 4 4 0 0 1-3.94 4zM325.84 447.54a4 4 0 0 1-3.39-6.1l98-157.84a24 24 0 0 0-41.6-23.86l-51.87 74.2a4 4 0 1 1-6.55-4.57l51.69-73.92a32 32 0 0 1 55.18 32.25l-98 157.95a4 4 0 0 1-3.46 1.89zM211.78 111.89a4 4 0 0 1-4-4V51.95a20 20 0 0 0-40 0v55.94a4 4 0 1 1-8 0V51.95a28 28 0 0 1 55.94 0v55.94a4 4 0 0 1-3.94 4zM275.71 111.89a4 4 0 0 1-4-4V28a20 20 0 0 0-40 0v79.92a4 4 0 0 1-8 0V28a28 28 0 1 1 55.94 0v79.92a4 4 0 0 1-3.94 3.97zM339.65 111.89a4 4 0 0 1-4-4V51.95a20 20 0 0 0-40 0v55.94a4 4 0 0 1-8 0V51.95a28 28 0 0 1 55.94 0v55.94a4 4 0 0 1-3.94 4zM219.77 511.47A124 124 0 0 1 95.9 387.6a4 4 0 1 1 8 0 116 116 0 0 0 115.87 115.88 4 4 0 1 1 0 8z"/><path class="cls-3" d="M219.77 511.47a4 4 0 1 1 0-8 115.67 115.67 0 0 0 102.54-61.8 4 4 0 1 1 7.07 3.73 123.64 123.64 0 0 1-109.61 66.07zM99.9 391.6a4 4 0 0 1-4-4v-48a4 4 0 0 1 8 0v48a4 4 0 0 1-4 4zM507.47 335.65h-95.9a4 4 0 0 1 0-8h95.9a4 4 0 0 1 0 8z"/><path class="cls-3" d="M315.67 335.65H4a4 4 0 0 1 0-8h311.67a4 4 0 0 1 0 8zM475.51 319.67h-55.95a4 4 0 0 1 0-8h55.94a4 4 0 0 1 0 8zM326.85 319.67H36a4 4 0 0 1 0-8h290.85a4 4 0 0 1 0 8zM99.9 111.89a4 4 0 0 1-4-4v-8a4 4 0 1 1 8 0v8a4 4 0 0 1-4 4zM147.85 111.89a4 4 0 0 1-4-4v-8a4 4 0 0 1 8 0v8a4 4 0 0 1-4 4z"/></g></g></svg>