<svg xmlns="http://www.w3.org/2000/svg" viewBox="0 0 511.65 415.72"><defs><style>.cls-1{fill:#ffe97b}.cls-2{fill:#f2d94c}.cls-3{fill:#fff}.cls-5{fill:#1e2d37}</style></defs><g id="Слой_2" data-name="Слой 2"><g id="Capa_1" data-name="Capa 1"><path class="cls-1" d="M4 315.79h367.75v79.95H4z"/><path class="cls-1" d="M371.75 379.74H67.95L4 315.79V107.93h367.75v271.81z"/><path class="cls-2" d="M4 35.98h367.75v71.95H4z"/><path class="cls-1" d="M68 4a8 8 0 0 0-8 8v48a8 8 0 0 0 16 0V12a8 8 0 0 0-8-8zM147.9 4a8 8 0 0 0-8 8v48a8 8 0 0 0 16 0V12a8 8 0 0 0-8-8zM227.85 4a8 8 0 0 0-8 8v48a8 8 0 0 0 16 0V12a8 8 0 0 0-8-8zM307.79 4a8 8 0 0 0-8 8v48a8 8 0 1 0 16 0V12a8 8 0 0 0-8-8z"/><path class="cls-1" d="M307.79 12a8 8 0 0 1 8 8v-8a8 8 0 1 0-16 0v8a8 8 0 0 1 8-8zM227.85 12a8 8 0 0 1 8 8v-8a8 8 0 1 0-16 0v8a8 8 0 0 1 8-8zM147.9 12a8 8 0 0 1 8 8v-8a8 8 0 1 0-16 0v8a8 8 0 0 1 8-8zM68 12a8 8 0 0 1 8 8v-8a8 8 0 1 0-16 0v8a8 8 0 0 1 8-8zM67.95 379.74v-63.95H4l63.95 63.95z"/><path class="cls-2" d="M4 395.73h379.74v15.99H4z"/><path class="cls-1" d="M171.89 131.91h31.98v31.98h-31.98zM219.85 131.91h31.98v31.98h-31.98zM267.82 131.91h31.98v31.98h-31.98zM27.99 179.88h31.98v31.98H27.99zM75.95 179.88h31.98v31.98H75.95zM123.92 179.88h31.98v31.98h-31.98zM171.89 179.88h31.98v31.98h-31.98zM219.85 179.88h31.98v31.98h-31.98zM267.82 179.88h31.98v31.98h-31.98zM28.31 227.85h31.98v31.98H28.31zM27.99 275.81h31.98v31.98H27.99zM75.95 275.81h31.98v31.98H75.95zM124.25 275.81h31.98v31.98h-31.98zM172.22 275.81h31.98v31.98h-31.98zM220.19 275.81h31.98v31.98h-31.98zM220.19 323.78h31.98v31.98h-31.98zM172.22 323.78h31.98v31.98h-31.98zM123.92 323.78h31.98v31.98h-31.98zM75.95 323.78h31.98v31.98H75.95zM76.28 227.85h31.98v31.98H76.28zM124.25 227.85h31.98v31.98h-31.98zM172.22 227.85h31.98v31.98h-31.98zM220.19 227.85h31.98v31.98h-31.98z"/><path class="cls-2" d="M443.7 131.91s64 68.27 64 155.89a123.92 123.92 0 1 1-247.83 0c0-136 135.91-211.85 135.91-211.85s-18.31 45.57 0 64 47.92-8.04 47.92-8.04z"/><path class="cls-3" d="M491.67 287.8a107.93 107.93 0 1 1-107.93-107.92A107.93 107.93 0 0 1 491.67 287.8z"/><path class="cls-3" d="M475.68 287.8a107.86 107.86 0 0 1-99.93 107.52c2.65.2 5.29.41 8 .41a107.93 107.93 0 1 0 0-215.85c-2.7 0-5.35.21-8 .41a107.86 107.86 0 0 1 99.93 107.51z" opacity=".5"/><path class="cls-5" d="M275.81 383.74H68a4 4 0 0 1 0-8h207.81a4 4 0 1 1 0 8zM4 319.78a4 4 0 0 1-4-4V36a4 4 0 1 1 8 0v279.78a4 4 0 0 1-4 4z"/><path class="cls-5" d="M44 40H4a4 4 0 0 1 0-8h40a4 4 0 0 1 0 8zM371.75 40h-40a4 4 0 0 1 0-8h40a4 4 0 0 1 0 8z"/><path class="cls-5" d="M371.75 72a4 4 0 0 1-4-4V36a4 4 0 1 1 8 0v32a4 4 0 0 1-4 4zM323.78 111.92H4a4 4 0 0 1 0-8h319.78a4 4 0 0 1 0 8zM203.86 167.89h-32a4 4 0 0 1-4-4v-32a4 4 0 0 1 4-4h32a4 4 0 0 1 4 4v32a4 4 0 0 1-4 4zm-28-8h24v-24h-24zM251.83 167.89h-32a4 4 0 0 1-4-4v-32a4 4 0 0 1 4-4h32a4 4 0 0 1 4 4v32a4 4 0 0 1-4 4zm-28-8h24v-24h-24zM267.82 167.89a4 4 0 0 1-4-4v-32a4 4 0 0 1 4-4h32a4 4 0 0 1 0 8h-28v28a4 4 0 0 1-4 4zM60 215.85H28a4 4 0 0 1-4-4v-32a4 4 0 0 1 4-4h32a4 4 0 0 1 4 4v32a4 4 0 0 1-4 4zm-28-8h24v-24H32zM107.93 215.85h-32a4 4 0 0 1-4-4v-32a4 4 0 0 1 4-4h32a4 4 0 0 1 4 4v32a4 4 0 0 1-4 4zm-28-8h24v-24h-24zM155.89 215.85h-32a4 4 0 0 1-4-4v-32a4 4 0 0 1 4-4h32a4 4 0 0 1 4 4v32a4 4 0 0 1-4 4zm-28-8h24v-24h-24zM203.86 215.85h-32a4 4 0 0 1-4-4v-32a4 4 0 0 1 4-4h32a4 4 0 0 1 4 4v32a4 4 0 0 1-4 4zm-28-8h24v-24h-24zM251.83 215.85h-32a4 4 0 0 1-4-4v-32a4 4 0 0 1 4-4h32a4 4 0 0 1 4 4v32a4 4 0 0 1-4 4zm-28-8h24v-24h-24zM267.82 191.87a4 4 0 0 1-4-4v-8a4 4 0 1 1 8 0v8a4 4 0 0 1-4 4zM60 263.82H28a4 4 0 0 1-4-4v-32a4 4 0 0 1 4-4h32a4 4 0 0 1 4 4v32a4 4 0 0 1-4 4zm-28-8h24v-24H32zM107.93 263.82h-32a4 4 0 0 1-4-4v-32a4 4 0 0 1 4-4h32a4 4 0 0 1 4 4v32a4 4 0 0 1-4 4zm-28-8h24v-24h-24zM155.89 263.82h-32a4 4 0 0 1-4-4v-32a4 4 0 0 1 4-4h32a4 4 0 0 1 4 4v32a4 4 0 0 1-4 4zm-28-8h24v-24h-24zM203.86 263.82h-32a4 4 0 0 1-4-4v-32a4 4 0 0 1 4-4h32a4 4 0 0 1 4 4v32a4 4 0 0 1-4 4zm-28-8h24v-24h-24zM219.85 263.82a4 4 0 0 1-4-4v-32a4 4 0 0 1 4-4h32a4 4 0 0 1 0 8h-28v28a4 4 0 0 1-4 4zM155.89 311.79h-32a4 4 0 0 1-4-4v-32a4 4 0 0 1 4-4h32a4 4 0 0 1 4 4v32a4 4 0 0 1-4 4zm-28-8h24v-24h-24zM203.86 311.79h-32a4 4 0 0 1-4-4v-32a4 4 0 0 1 4-4h32a4 4 0 0 1 4 4v32a4 4 0 0 1-4 4zm-28-8h24v-24h-24zM243.84 311.79h-24a4 4 0 0 1-4-4v-32a4 4 0 0 1 4-4h24a4 4 0 0 1 0 8h-20v24h20a4 4 0 0 1 0 8zM155.89 359.75h-32a4 4 0 0 1-4-4v-32a4 4 0 0 1 4-4h32a4 4 0 0 1 4 4v32a4 4 0 0 1-4 4zm-28-8h24v-24h-24zM203.86 359.75h-32a4 4 0 0 1-4-4v-32a4 4 0 0 1 4-4h32a4 4 0 0 1 4 4v32a4 4 0 0 1-4 4zm-28-8h24v-24h-24zM251.83 359.75h-32a4 4 0 0 1-4-4v-32a4 4 0 0 1 8 0v28h28a4 4 0 0 1 0 8zM291.8 399.73H4a4 4 0 0 1 0-8h287.8a4 4 0 1 1 0 8zM315.79 415.72H4a4 4 0 0 1 0-8h311.79a4 4 0 1 1 0 8zM68 383.74a4 4 0 0 1-2.83-1.17l-64-64A4 4 0 0 1 6.82 313l64 64a4 4 0 0 1-2.82 6.74z"/><path class="cls-5" d="M68 383.74a4 4 0 0 1-4-4v-64a4 4 0 0 1 8 0v64a4 4 0 0 1-4 4z"/><path class="cls-5" d="M68 319.78H4a4 4 0 0 1 0-8h64a4 4 0 1 1 0 8zM4 399.73a4 4 0 0 1-4-4v-57.62a4 4 0 1 1 8 0v57.63a4 4 0 0 1-4 3.99zM60 279.81H28a4 4 0 0 1 0-8h32a4 4 0 1 1 0 8z"/><path class="cls-5" d="M60 303.79a4 4 0 0 1-4-4v-24a4 4 0 1 1 8 0v24a4 4 0 0 1-4 4zM28 303.79a4 4 0 0 1-4-4v-24a4 4 0 0 1 8 0v24a4 4 0 0 1-4 4zM75.95 303.79a4 4 0 0 1-4-4v-24a4 4 0 0 1 8 0v24a4 4 0 0 1-4 4z"/><path class="cls-5" d="M107.93 279.81h-32a4 4 0 1 1 0-8h32a4 4 0 1 1 0 8z"/><path class="cls-5" d="M107.93 311.79a4 4 0 0 1-4-4v-32a4 4 0 0 1 8 0v32a4 4 0 0 1-4 4z"/><path class="cls-5" d="M107.93 311.79h-24a4 4 0 0 1 0-8h24a4 4 0 1 1 0 8zM107.93 359.75a4 4 0 0 1-4-4v-32a4 4 0 0 1 8 0v32a4 4 0 0 1-4 4z"/><path class="cls-5" d="M107.93 359.75h-24a4 4 0 0 1 0-8h24a4 4 0 1 1 0 8zM107.93 327.78h-24a4 4 0 0 1 0-8h24a4 4 0 1 1 0 8zM56 95.94H32a4 4 0 1 1 0-8h24a4 4 0 0 1 0 8zM103.93 95.94h-24a4 4 0 0 1 0-8h24a4 4 0 1 1 0 8zM151.9 95.94h-24a4 4 0 1 1 0-8h24a4 4 0 0 1 0 8zM199.86 95.94h-24a4 4 0 0 1 0-8h24a4 4 0 1 1 0 8zM247.84 95.94h-24a4 4 0 0 1 0-8h24a4 4 0 0 1 0 8zM295.8 95.94h-24a4 4 0 0 1 0-8h24a4 4 0 1 1 0 8zM343.77 95.94h-24a4 4 0 1 1 0-8h24a4 4 0 1 1 0 8zM68 72a12 12 0 0 1-12-12V12a12 12 0 1 1 24 0v48a12 12 0 0 1-12 12zm0-64a4 4 0 0 0-4 4v48a4 4 0 0 0 8 0V12a4 4 0 0 0-4-4zM147.9 72a12 12 0 0 1-12-12V12a12 12 0 0 1 24 0v48a12 12 0 0 1-12 12zm0-64a4 4 0 0 0-4 4v48a4 4 0 0 0 8 0V12a4 4 0 0 0-4-4zM227.85 72a12 12 0 0 1-12-12V12a12 12 0 0 1 24 0v48a12 12 0 0 1-12 12zm0-64a4 4 0 0 0-4 4v48a4 4 0 0 0 8 0V12a4 4 0 0 0-4-4zM307.79 72a12 12 0 0 1-12-12V12a12 12 0 0 1 24 0v48a12 12 0 0 1-12 12zm0-64a4 4 0 0 0-4 4v48a4 4 0 1 0 8 0V12a4 4 0 0 0-4-4zM123.92 40h-32a4 4 0 1 1 0-8h32a4 4 0 1 1 0 8zM203.86 40h-32a4 4 0 0 1 0-8h32a4 4 0 1 1 0 8zM283.81 40h-32a4 4 0 0 1 0-8h32a4 4 0 1 1 0 8zM383.74 415.72a4 4 0 0 1 0-8A120.05 120.05 0 0 0 503.66 287.8a4 4 0 1 1 8 0 128.06 128.06 0 0 1-127.92 127.92z"/><path class="cls-5" d="M383.74 415.72A128.06 128.06 0 0 1 255.83 287.8a4 4 0 0 1 8 0 120 120 0 0 0 119.91 119.92 4 4 0 1 1 0 8z"/><path class="cls-5" d="M507.65 291.8a4 4 0 0 1-4-4c0-75.3-48.79-136.79-60.42-150.37-8.61 6.6-33.09 22.48-50.33 5.3-14.29-14.35-9-42.15-4.52-57.5-30.34 20-124.57 91.26-124.57 202.57a4 4 0 0 1-8 0c0-136.75 136.58-214.58 138-215.35a4 4 0 0 1 5.66 5c-.17.43-17.11 43.35-.87 59.65 15.52 15.47 42.2-7.92 42.48-8.16a4 4 0 0 1 5.57.25c2.66 2.83 65 70.44 65 158.63a4 4 0 0 1-4 3.98z"/><path class="cls-5" d="M384 199.86a4 4 0 0 1-4-4 4 4 0 0 1 3.95-4h.05a4 4 0 1 1 0 8zM384 383.74a4 4 0 0 1-4-4 4 4 0 0 1 3.95-4h.05a4 4 0 1 1 0 8zM338 212.18a4 4 0 0 1-4-4 4 4 0 0 1 3.95-4h.05a4 4 0 0 1 0 8zM429.95 371.42a4 4 0 0 1-4-4 4 4 0 0 1 3.95-4h.09a4 4 0 1 1 0 8zM304.35 245.83a4 4 0 0 1-4-4 4 4 0 0 1 4-4h.09a4 4 0 1 1 0 8zM463.6 337.77a4 4 0 0 1-4-4 4 4 0 0 1 4-4h.09a4 4 0 0 1 0 8zM292 291.8a4 4 0 0 1-4-4 4 4 0 0 1 3.95-4h.05a4 4 0 1 1 0 8zM475.9 291.8a4 4 0 0 1-4-4 4 4 0 0 1 3.95-4h.09a4 4 0 1 1 0 8zM304.33 337.78a4 4 0 0 1-4-4 4 4 0 0 1 4-4h.09a4 4 0 1 1 0 8zM463.58 245.83a4 4 0 0 1-4-4 4 4 0 0 1 4-4h.09a4 4 0 0 1 0 8zM338 371.43a4 4 0 0 1-4-4 4 4 0 0 1 3.95-4h.05a4 4 0 1 1 0 8zM429.93 212.19a4 4 0 0 1-4-4 4 4 0 0 1 3.95-4h.09a4 4 0 0 1 0 8z"/><path class="cls-5" d="M383.74 399.73A111.92 111.92 0 1 1 495.66 287.8a112.05 112.05 0 0 1-111.92 111.93zm0-215.85A103.93 103.93 0 1 0 487.67 287.8a104 104 0 0 0-103.93-103.92z"/><path class="cls-5" d="M383.74 291.8a4 4 0 0 1-4-4v-68a4 4 0 1 1 8 0v68a4 4 0 0 1-4 4z"/><path class="cls-5" d="M427.71 335.77a4 4 0 0 1-2.83-1.17l-44-44a4 4 0 0 1 5.65-5.65l44 44a4 4 0 0 1-2.83 6.82zM243.84 263.82h-24a4 4 0 1 1 0-8h24a4 4 0 0 1 0 8zM299.8 143.9a4 4 0 0 1-4-4v-8a4 4 0 1 1 8 0v8a4 4 0 0 1-4 4zM275.81 167.89h-8a4 4 0 0 1 0-8h8a4 4 0 0 1 0 8zM251.83 359.75a4 4 0 0 1-4-4v-16a4 4 0 1 1 8 0v16a4 4 0 0 1-4 4zM243.84 327.78h-24a4 4 0 1 1 0-8h24a4 4 0 0 1 0 8z"/></g></g></svg>