<svg xmlns="http://www.w3.org/2000/svg" viewBox="0 0 495.92 511.48"><defs><style>.cls-1{fill:#f2d94c}.cls-2{fill:#ffe97b}.cls-3{fill:#1e2d37}</style></defs><g id="Слой_2" data-name="Слой 2"><g id="Capa_1" data-name="Capa 1"><path class="cls-1" d="M300 507.48H4v-56c0-32 16-44.07 48-56 19-7.12 55.67-21.28 80-34.71l16-13.28 40 48 48-24h24l48 24 40-48 16 13.28c24.32 13.43 61 27.59 80 34.71 32 11.92 48 24 48 56v56h-80v-56h-48v-16h-16v16h-48v56z"/><path class="cls-2" d="M164 471.56a28 28 0 1 1-28-28 28 28 0 0 1 28 28zM187.97 395.5l-39.99-48 14.74-28.74 13.88 12.75 29.37 20.74 41.99 11.25v8l-59.99 24z"/><path class="cls-2" d="M307.95 395.5l39.99-48-14.65-30.31-13.97 14.32-29.37 20.74-41.99 11.25v8l59.99 24zM347.94 435.49h16v16h-16zM411.93 451.49v55.99H299.95v-55.99H411.93z"/><path class="cls-2" d="M387.94 179.53v16c0 91.58-86.7 168-140 168a65.44 65.44 0 0 1-10.32-.89C184.21 353.89 108 281.36 108 195.52v-16l33.44-57.43s55 23 105.42 23 106-23 106-23z"/><path class="cls-1" d="M321.79 64.58s85.91-11.92 66.15 114.94l-35.12-57.42s-55.66 23-106 23-105.42-23-105.42-23L108 179.52C88-33.8 344.82 7.16 344.82 7.16c-37.59 15.43-23.03 57.42-23.03 57.42z"/><path class="cls-3" d="M154.62 496.43a4 4 0 0 1-2.51-7.11c.28-.23.5-.45.72-.67a24 24 0 0 0-8.9-39.71 23.55 23.55 0 0 0-7.95-1.37 24 24 0 0 0-17.88 40 6.52 6.52 0 0 0 .85.86 4 4 0 1 1-5.13 6.14 13.12 13.12 0 0 1-1.8-1.81 32 32 0 1 1 46.45 1.59 15.07 15.07 0 0 1-1.34 1.23 4 4 0 0 1-2.51.85z"/><path class="cls-3" d="M144 483.56a4 4 0 0 1-2.83-1.17l-16-16a4 4 0 0 1 5.65-5.65l16 16a4 4 0 0 1-2.83 6.83z"/><path class="cls-3" d="M132.06 495.48a4 4 0 0 1-2.83-6.83l11.92-11.92a4 4 0 1 1 5.65 5.65l-11.92 11.92a4 4 0 0 1-2.82 1.18zM128 467.56a4 4 0 0 1-2.74-1.09 4 4 0 0 1-.18-5.65l31-33a4 4 0 0 1 5.83 5.48l-31 33a4 4 0 0 1-2.91 1.26z"/><path class="cls-3" d="M491.92 511.48H4a4 4 0 0 1-4-4v-56c0-34.36 17.78-47.48 50.6-59.73 35.32-13.26 62.05-24.86 79.45-34.46a4 4 0 1 1 3.87 7c-17.73 9.8-44.82 21.56-80.51 34.95C22.63 410.7 8 421.43 8 451.49v52h479.92v-52c0-30.06-14.64-40.79-45.38-52.24-34.9-13-62.74-25.14-80.53-35a4 4 0 0 1 3.88-7c17.45 9.64 44.92 21.56 79.46 34.46 32.81 12.22 50.58 25.37 50.58 59.74v56a4 4 0 0 1-4.01 4.03z"/><path class="cls-3" d="M248 367.5a69.21 69.21 0 0 1-11-.94c-53-8.64-133-81.27-133-171a4 4 0 1 1 8 0c0 85.69 76 154.93 126.3 163.15a62.29 62.29 0 0 0 9.67.83c52.46 0 136-75.05 136-164a4 4 0 1 1 8 0C391.94 288.79 303.5 367.5 248 367.5z"/><path class="cls-3" d="M347.94 351.5a4 4 0 0 1-3.58-2.22l-8-16a4 4 0 0 1 7.15-3.58l8 16a4 4 0 0 1-3.58 5.8z"/><path class="cls-3" d="M307.95 399.49a4 4 0 0 1-3.08-6.56l40-48a4 4 0 0 1 6.16 5.12l-40 48a4.05 4.05 0 0 1-3.08 1.44z"/><path class="cls-3" d="M307.95 399.49a4 4 0 0 1-1.58-.33l-56-24a4 4 0 0 1 3.15-7.36l56 24a4 4 0 0 1-1.58 7.68zM148 351.5a4.06 4.06 0 0 1-1.79-.42 4 4 0 0 1-1.79-5.37l8-16a4 4 0 0 1 7.15 3.58l-8 16a4 4 0 0 1-3.57 2.21z"/><path class="cls-3" d="M188 399.49a4 4 0 0 1-3.08-1.44l-40-48a4 4 0 1 1 6.15-5.12l40 48a4 4 0 0 1-3.07 6.56z"/><path class="cls-3" d="M188 399.49a4 4 0 0 1-1.57-7.69l56-24a4 4 0 0 1 3.15 7.36l-56 24a4 4 0 0 1-1.58.33zM108 183.52a4 4 0 0 1-4-3.62c-4.95-52.81 6.5-94.9 34.05-125.18C179.24 9.5 247.17 0 296.91 0a338.35 338.35 0 0 1 48.54 3.2 4 4 0 0 1 .89 7.65c-28.62 11.75-24 40.21-21.63 49.48.8 0 1.73-.06 2.77-.06 11.37 0 32.82 2.77 48.7 21.32 17.43 20.36 22.72 53.51 15.71 98.54a4 4 0 0 1-7.36 1.47l-33.36-54.55c-12.65 4.89-60.08 22-104.32 22s-91-17-103.7-22l-31.7 54.44a4 4 0 0 1-3.45 2.03zm244.82-65.42a4 4 0 0 1 3.42 1.91l29.25 47.84c4.22-36.95-.94-64.18-15.38-81-13.8-16.11-32.63-18.52-42.63-18.52a44 44 0 0 0-5.15.26 4 4 0 0 1-4.33-2.7c-.14-.41-12.26-36.62 14.12-56.22C323.71 8.86 311.4 8 296.91 8 248.78 8 183.18 17 144 60.11c-23.71 26-34.75 61.7-32.88 106.15L138 120.08a4 4 0 0 1 5-1.68c.54.23 54.9 22.65 103.88 22.65s103.87-22.42 104.42-22.65a3.84 3.84 0 0 1 1.52-.3zM300 503.48a4 4 0 0 1-4-4v-48a4 4 0 0 1 4-4h40a4 4 0 0 1 0 8h-36v44a4 4 0 0 1-4 4zM411.93 503.48a4 4 0 0 1-4-4v-44h-36a4 4 0 1 1 0-8h40a4 4 0 0 1 4 4v48a4 4 0 0 1-4 4z"/><path class="cls-3" d="M363.94 455.48h-16a4 4 0 0 1-4-4v-16a4 4 0 0 1 4-4h16a4 4 0 0 1 4 4v16a4 4 0 0 1-4 4zm-12-8h8v-8h-8z"/><path class="cls-3" d="M347.94 459.48a4 4 0 0 1-4-4v-4a4 4 0 1 1 8 0v4a4 4 0 0 1-4 4zM363.94 459.48a4 4 0 0 1-4-4v-4a4 4 0 1 1 8 0v4a4 4 0 0 1-4 4zM387.94 479.48h-64a4 4 0 1 1 0-8h64a4 4 0 0 1 0 8zM371.94 495.48h-32a4 4 0 1 1 0-8h32a4 4 0 1 1 0 8z"/></g></g></svg>